<svg width="100" height="50" xmlns="http://www.w3.org/2000/svg" xmlns:xlink="http://www.w3.org/1999/xlink">
  <defs>
    <path id="a" d="M23.0346 27.1868H.0926V.1003h22.942v27.0865z"/>
    <path id="c" d="M0 31.6204V.211h27.3029v31.4093H0z"/>
  </defs>
  <g fill="none" fill-rule="evenodd">
    <g transform="translate(41.1227 15.448)">
      <mask id="b" fill="#fff">
        <use xlink:href="#a"/>
      </mask>
      <path d="M5.765.1003h10.0943c5.419 0 7.4589 2.716 7.144 6.712-.5199 6.5879-4.5428 10.2303-9.8805 10.2303H10.429c-.7308 0-1.2237.4788-1.4231 1.7783l-1.1553 7.5525c-.074.49-.3362.7786-.7265.8138H.7935c-.5955 0-.8077-.452-.651-1.4291L4.0072 1.5337C4.1625.5622 4.6982.1003 5.7651.1003" fill="#009DE2" mask="url(#b)"/>
    </g>
    <g transform="translate(34 7)">
      <mask id="d" fill="#fff">
        <use xlink:href="#c"/>
      </mask>
      <path d="M6.5768.211H16.681c2.8462 0 6.221.0915 8.4788 2.0627 1.5086 1.3165 2.3006 3.4158 2.1169 5.6672-.6197 7.6383-5.2352 11.9143-11.4234 11.9143h-4.983c-.8476 0-1.4103.5576-1.6496 2.0641L7.8304 30.677c-.0898.5674-.339.9025-.7935.9434H.8131c-.6909 0-.9373-.5224-.7564-1.6558l4.483-28.0908C4.7192.7474 5.3403.211 6.5767.211" fill="#113984" mask="url(#d)"/>
    </g>
    <path d="M43.3653 28.0365l1.765-11.0555c.1553-.9715.6923-1.4333 1.7579-1.4333H56.981c1.671 0 3.0214.259 4.0799.735-1.0157 6.7963-5.456 10.5725-11.271 10.5725h-4.9844c-.6553 0-1.1453.3323-1.4402 1.1813" fill="#172C70"/>
  </g>
</svg>
